<svg aria-hidden="true" role="img" viewBox="0 0 28 27" fill="none" xmlns="http://www.w3.org/2000/svg">
<path d="M21.7459 6.1876C20.2799 5.51497 18.7079 5.0194 17.0643 4.73557C17.0344 4.73009 17.0045 4.74378 16.989 4.77116C16.7869 5.13074 16.5629 5.59984 16.4061 5.96855C14.6383 5.70389 12.8795 5.70389 11.1479 5.96855C10.9911 5.59165 10.759 5.13074 10.5559 4.77116C10.5405 4.74469 10.5106 4.731 10.4807 4.73557C8.83797 5.01849 7.26597 5.51406 5.79912 6.1876C5.78642 6.19308 5.77554 6.20221 5.76831 6.21407C2.78656 10.6687 1.96973 15.0139 2.37044 19.3052C2.37225 19.3262 2.38404 19.3463 2.40036 19.3591C4.36763 20.8038 6.27328 21.6809 8.14353 22.2622C8.17347 22.2714 8.20518 22.2604 8.22423 22.2358C8.66664 21.6316 9.06101 20.9946 9.39914 20.3247C9.41909 20.2854 9.40005 20.2389 9.35926 20.2234C8.73373 19.9861 8.13809 19.6968 7.56513 19.3682C7.51981 19.3418 7.51618 19.2769 7.55788 19.2459C7.67845 19.1556 7.79905 19.0615 7.91418 18.9666C7.93501 18.9493 7.96404 18.9456 7.98853 18.9566C11.7526 20.6751 15.8277 20.6751 19.5474 18.9566C19.5719 18.9447 19.6009 18.9484 19.6226 18.9657C19.7378 19.0606 19.8584 19.1556 19.9799 19.2459C20.0215 19.2769 20.0188 19.3418 19.9735 19.3682C19.4005 19.7031 18.8049 19.9861 18.1785 20.2225C18.1377 20.238 18.1195 20.2854 18.1395 20.3247C18.4849 20.9936 18.8793 21.6307 19.3135 22.2349C19.3316 22.2604 19.3643 22.2714 19.3942 22.2622C21.2735 21.6809 23.1792 20.8038 25.1464 19.3591C25.1637 19.3463 25.1745 19.3271 25.1764 19.3062C25.6559 14.3449 24.3731 10.0354 21.7758 6.21498C21.7694 6.20221 21.7586 6.19308 21.7459 6.1876ZM9.96125 16.6923C8.82799 16.6923 7.89423 15.6519 7.89423 14.3741C7.89423 13.0964 8.80989 12.056 9.96125 12.056C11.1216 12.056 12.0464 13.1055 12.0282 14.3741C12.0282 15.6519 11.1126 16.6923 9.96125 16.6923ZM17.6037 16.6923C16.4705 16.6923 15.5367 15.6519 15.5367 14.3741C15.5367 13.0964 16.4523 12.056 17.6037 12.056C18.7641 12.056 19.6888 13.1055 19.6707 14.3741C19.6707 15.6519 18.7641 16.6923 17.6037 16.6923Z" fill="currentColor"/>
</svg>
