<svg aria-hidden="true" role="img" viewBox="0 0 28 27" fill="none" xmlns="http://www.w3.org/2000/svg">
<path d="M10.6276 21.518C10.6276 22.4346 10.6378 23.3112 10.644 23.8554C10.6451 23.9869 10.6874 24.1148 10.7648 24.2212C10.8421 24.3276 10.9508 24.4071 11.0757 24.4487C13.2013 25.1504 15.4916 25.1831 17.6367 24.5418L17.9354 24.4528C18.076 24.4107 18.1994 24.3246 18.2875 24.2071C18.3755 24.0896 18.4235 23.947 18.4243 23.8002C18.4294 23.0504 18.4417 21.7369 18.4417 20.1892C18.4417 18.7858 17.9538 17.8877 17.3871 17.4202C20.864 17.0458 24.5168 15.7733 24.5168 10.0276C24.5168 8.38065 23.9113 7.05085 22.9149 6.00338C23.0715 5.62899 23.6187 4.09461 22.7584 2.03649C22.7584 2.03649 21.4491 1.62426 18.4611 3.57087C17.1863 3.23247 15.8726 3.06258 14.5536 3.06555C13.2258 3.06555 11.8971 3.23433 10.6471 3.57087C7.6591 1.64164 6.34976 2.03649 6.34976 2.03649C5.49051 4.09461 6.03675 5.62899 6.19326 6.00338C5.1499 7.0813 4.57422 8.52749 4.59136 10.0276C4.59136 15.7539 8.22478 17.0448 11.7017 17.4202C11.2526 17.7946 10.8424 18.4493 10.7064 19.4221C9.80724 19.8149 7.5609 20.4511 6.15438 18.1874C5.86183 17.7373 4.98212 16.6336 3.75154 16.653C2.4422 16.6714 3.22372 17.3639 3.772 17.6452C4.43485 18.0002 5.19693 19.329 5.37287 19.7596C5.68589 20.6015 6.70165 22.2095 10.6276 21.518Z" fill="currentColor"/>
</svg>
