<svg aria-hidden="true" role="img" viewBox="0 0 28 27" fill="none" xmlns="http://www.w3.org/2000/svg">
<path d="M25.2754 6.36924C24.4296 6.74403 23.521 6.99726 22.5658 7.11173C23.5514 6.52198 24.2887 5.59379 24.6403 4.50035C23.7143 5.05037 22.7008 5.43752 21.644 5.64498C20.9333 4.88614 19.9919 4.38317 18.9661 4.21416C17.9402 4.04515 16.8873 4.21955 15.9707 4.71028C15.0541 5.20102 14.3252 5.98063 13.8971 6.92808C13.469 7.87554 13.3657 8.93782 13.6032 9.95001C11.7269 9.8558 9.89137 9.36812 8.21575 8.51862C6.54013 7.66911 5.06185 6.47677 3.87686 5.01898C3.47168 5.71791 3.2387 6.52827 3.2387 7.3913C3.23825 8.16823 3.42958 8.93325 3.7957 9.6185C4.16183 10.3038 4.69144 10.888 5.33753 11.3195C4.58823 11.2957 3.85546 11.0932 3.20021 10.729V10.7897C3.20014 11.8794 3.57706 12.9355 4.26703 13.7789C4.957 14.6223 5.91752 15.2011 6.9856 15.4169C6.2905 15.605 5.56174 15.6327 4.85436 15.4979C5.15571 16.4355 5.74271 17.2554 6.53318 17.8428C7.32366 18.4302 8.27804 18.7557 9.26271 18.7738C7.59117 20.086 5.52684 20.7978 3.40179 20.7946C3.02536 20.7947 2.64925 20.7727 2.27539 20.7288C4.43244 22.1157 6.9434 22.8517 9.50784 22.8489C18.1888 22.8489 22.9345 15.659 22.9345 9.42327C22.9345 9.22069 22.9294 9.01607 22.9203 8.81348C23.8434 8.14592 24.6402 7.31928 25.2734 6.37227L25.2754 6.36924Z" fill="currentColor"/>
</svg>
