<svg aria-hidden="true" role="img" viewBox="0 0 16 16" fill="none" xmlns="http://www.w3.org/2000/svg">
<path d="M13.8125 3.57715H2.8125C2.53636 3.57715 2.3125 3.80101 2.3125 4.07715V13.0771C2.3125 13.3533 2.53636 13.5771 2.8125 13.5771H13.8125C14.0886 13.5771 14.3125 13.3533 14.3125 13.0771V4.07715C14.3125 3.80101 14.0886 3.57715 13.8125 3.57715Z" stroke="currentColor" stroke-linecap="round" stroke-linejoin="round"/>
<path d="M7.56251 9.80189C7.31921 10.0502 7.00747 10.2204 6.66704 10.2909C6.32661 10.3613 5.97292 10.3287 5.65106 10.1973C5.32921 10.0659 5.05379 9.84166 4.85991 9.5531C4.66604 9.26455 4.5625 8.92478 4.5625 8.57714C4.5625 8.2295 4.66604 7.88974 4.85992 7.60119C5.05379 7.31263 5.32922 7.08835 5.65107 6.95696C5.97293 6.82557 6.32662 6.79301 6.66705 6.86344C7.00748 6.93387 7.31922 7.1041 7.56251 7.35242" stroke="currentColor" stroke-linecap="round" stroke-linejoin="round"/>
<path d="M12.0625 9.80189C11.8192 10.0502 11.5075 10.2204 11.167 10.2909C10.8266 10.3613 10.4729 10.3287 10.1511 10.1973C9.82921 10.0659 9.55379 9.84166 9.35991 9.5531C9.16604 9.26455 9.0625 8.92478 9.0625 8.57714C9.0625 8.2295 9.16604 7.88974 9.35992 7.60119C9.55379 7.31263 9.82922 7.08835 10.1511 6.95696C10.4729 6.82557 10.8266 6.79301 11.167 6.86344C11.5075 6.93387 11.8192 7.1041 12.0625 7.35242" stroke="currentColor" stroke-linecap="round" stroke-linejoin="round"/>
</svg>
