<svg aria-hidden="true" role="img" viewBox="0 0 16 16" fill="none" xmlns="http://www.w3.org/2000/svg">
<path d="M13.5291 3.07715H10.7599C10.42 3.07715 10.1445 3.30101 10.1445 3.57715V13.5771C10.1445 13.8533 10.42 14.0771 10.7599 14.0771H13.5291C13.869 14.0771 14.1445 13.8533 14.1445 13.5771V3.57715C14.1445 3.30101 13.869 3.07715 13.5291 3.07715Z" stroke="currentColor" stroke-linecap="round" stroke-linejoin="round"/>
<path d="M6.52915 3.07715H3.75992C3.42005 3.07715 3.14453 3.30101 3.14453 3.57715V13.5771C3.14453 13.8533 3.42005 14.0771 3.75992 14.0771H6.52915C6.86901 14.0771 7.14453 13.8533 7.14453 13.5771V3.57715C7.14453 3.30101 6.86901 3.07715 6.52915 3.07715Z" stroke="currentColor" stroke-linecap="round" stroke-linejoin="round"/>
</svg>
