<svg aria-hidden="true" role="img" viewBox="0 0 16 16" fill="none" xmlns="http://www.w3.org/2000/svg">
<path d="M14.48 8.1498L5.48143 2.65051C5.40564 2.60419 5.31888 2.5789 5.23006 2.57724C5.14125 2.57557 5.0536 2.5976 4.97613 2.64105C4.89865 2.6845 4.83415 2.7478 4.78926 2.82445C4.74437 2.9011 4.7207 2.98832 4.7207 3.07715V14.0757C4.7207 14.1646 4.74437 14.2518 4.78926 14.3284C4.83415 14.4051 4.89865 14.4684 4.97613 14.5118C5.0536 14.5553 5.14125 14.5773 5.23006 14.5756C5.31888 14.574 5.40564 14.5487 5.48143 14.5024L14.48 9.00308C14.5531 8.95841 14.6134 8.89572 14.6553 8.82101C14.6972 8.74631 14.7192 8.66209 14.7192 8.57644C14.7192 8.49079 14.6972 8.40657 14.6553 8.33186C14.6134 8.25716 14.5531 8.19447 14.48 8.1498Z" stroke="currentColor" stroke-linecap="round" stroke-linejoin="round"/>
</svg>
