<svg aria-hidden="true" role="img" viewBox="0 0 16 16" fill="none" xmlns="http://www.w3.org/2000/svg">
<path d="M8.31445 11.5771C9.97131 11.5771 11.3145 10.234 11.3145 8.57715C11.3145 6.92029 9.97131 5.57715 8.31445 5.57715C6.6576 5.57715 5.31445 6.92029 5.31445 8.57715C5.31445 10.234 6.6576 11.5771 8.31445 11.5771Z" stroke="currentColor" stroke-linecap="round" stroke-linejoin="round"/>
<path d="M12.6534 5.61749C12.8012 5.83462 12.9326 6.06255 13.0463 6.29937L14.668 7.19958C14.8655 8.10675 14.8662 9.04573 14.67 9.95318L13.0474 10.8539C12.9333 11.0905 12.8016 11.3183 12.6534 11.5351L12.6846 13.3896C11.9977 14.0143 11.1849 14.4844 10.3009 14.7682L8.70959 13.8134C8.44761 13.8329 8.18453 13.8326 7.92258 13.8127L6.33215 14.767C5.44776 14.4845 4.63424 14.0156 3.94647 13.3919L3.9777 11.5364C3.82982 11.3193 3.69846 11.0913 3.58473 10.8545L1.9631 9.95432C1.76558 9.04715 1.7649 8.10818 1.96111 7.20072L3.58365 6.30001C3.69775 6.06338 3.82947 5.83565 3.97769 5.61876L3.94648 3.76427C4.63335 3.13963 5.44619 2.66955 6.33017 2.38574L7.92148 3.34055C8.18346 3.32105 8.44654 3.32125 8.70849 3.34117L10.2989 2.38689C11.1833 2.66942 11.9968 3.13832 12.6846 3.76197L12.6534 5.61749Z" stroke="currentColor" stroke-linecap="round" stroke-linejoin="round"/>
</svg>
