<svg aria-hidden="true" role="img" viewBox="0 0 16 16" fill="none" xmlns="http://www.w3.org/2000/svg">
<path d="M13.9941 5.39453C14.412 5.81239 14.7435 6.30847 14.9696 6.85444C15.1958 7.4004 15.3122 7.98556 15.3122 8.57651C15.3122 9.16746 15.1958 9.75262 14.9696 10.2986C14.7435 10.8446 14.412 11.3406 13.9941 11.7585" stroke="currentColor" stroke-linecap="round" stroke-linejoin="round"/>
<path d="M5.31445 11.0771H2.31445C2.18184 11.0771 2.05467 11.0245 1.9609 10.9307C1.86713 10.8369 1.81445 10.7098 1.81445 10.5771V6.57715C1.81445 6.44454 1.86713 6.31736 1.9609 6.2236C2.05467 6.12983 2.18184 6.07715 2.31445 6.07715H5.31445L9.81445 2.57715V14.5771L5.31445 11.0771Z" stroke="currentColor" stroke-linecap="round" stroke-linejoin="round"/>
<path d="M5.31445 6.07715V11.0771" stroke="currentColor" stroke-linecap="round" stroke-linejoin="round"/>
<path d="M12.2266 7.16309C12.4123 7.3488 12.5596 7.56928 12.6601 7.81193C12.7606 8.05458 12.8123 8.31466 12.8123 8.5773C12.8123 8.83994 12.7606 9.10001 12.6601 9.34267C12.5596 9.58532 12.4123 9.8058 12.2266 9.99151" stroke="currentColor" stroke-linecap="round" stroke-linejoin="round"/>
</svg>
