<svg aria-hidden="true" role="img" viewBox="0 0 28 27" fill="none" xmlns="http://www.w3.org/2000/svg">
<path fill-rule="evenodd" clip-rule="evenodd" d="M20.9811 7.12475C20.7213 6.83132 20.4439 6.55394 20.1505 6.29413L19.7037 3.16601C18.8203 2.65793 17.8751 2.26602 16.8914 2L14.3626 3.89682C13.9714 3.87304 13.5791 3.87304 13.1879 3.89683L10.6601 2.00082C9.67621 2.26618 8.7307 2.65745 7.84701 3.16492L7.40014 6.2943C7.10671 6.5541 6.82933 6.83149 6.56952 7.12493L3.4414 7.5717C2.93332 8.45505 2.54141 9.4003 2.27539 10.384L4.17221 12.9128C4.14843 13.304 4.17228 14.0873 4.17228 14.0873L2.27621 16.6153C2.54157 17.5992 2.93284 18.5447 3.44032 19.4284L6.56969 19.8752C6.8295 20.1687 7.10688 20.4461 7.40032 20.7059L7.84709 23.834C8.73044 24.3421 9.67569 24.734 10.6594 25L13.1882 23.1032C13.5794 23.127 13.9717 23.127 14.3629 23.1032L16.8907 24.9992C17.8746 24.7338 18.8201 24.3426 19.7038 23.8351L20.1506 20.7057C20.444 20.4459 20.9811 19.8751 20.9811 19.8751L24.1094 19.4283C24.6175 18.545 25.0094 17.5997 25.2754 16.616L23.3786 14.0872C23.4023 13.6961 23.3785 12.9127 23.3785 12.9127L25.2746 10.3847C25.0092 9.40082 24.6179 8.45531 24.1105 7.57162L20.9811 7.12475ZM19.2735 13.5001C19.2735 16.5364 16.8121 18.9978 13.7758 18.9978C10.7395 18.9978 8.27808 16.5364 8.27808 13.5001C8.27808 10.4638 10.7395 8.0024 13.7758 8.0024C16.8121 8.0024 19.2735 10.4638 19.2735 13.5001Z" fill="currentColor"/>
</svg>
